<?xml version="1.0" encoding="UTF-8" standalone="no"?>
<svg
   xmlns:dc="http://purl.org/dc/elements/1.1/"
   xmlns:cc="http://creativecommons.org/ns#"
   xmlns:rdf="http://www.w3.org/1999/02/22-rdf-syntax-ns#"
   xmlns:svg="http://www.w3.org/2000/svg"
   xmlns="http://www.w3.org/2000/svg"
   xmlns:sodipodi="http://sodipodi.sourceforge.net/DTD/sodipodi-0.dtd"
   xmlns:inkscape="http://www.inkscape.org/namespaces/inkscape"
   viewBox="0 0 28 28"
   x="0px"
   y="0px"
   version="1.1"
   id="svg3741"
   sodipodi:docname="active.svg"
   inkscape:version="0.92.4 (5da689c313, 2019-01-14)"
   width="28"
   height="28">
  <metadata
     id="metadata3747">
    <rdf:RDF>
      <cc:Work
         rdf:about="">
        <dc:format>image/svg+xml</dc:format>
        <dc:type
           rdf:resource="http://purl.org/dc/dcmitype/StillImage" />
        <dc:title>checked, verified, tick, document, approved</dc:title>
      </cc:Work>
    </rdf:RDF>
  </metadata>
  <defs
     id="defs3745" />
  <sodipodi:namedview
     pagecolor="#ffffff"
     bordercolor="#666666"
     borderopacity="1"
     objecttolerance="10"
     gridtolerance="10"
     guidetolerance="10"
     inkscape:pageopacity="0"
     inkscape:pageshadow="2"
     inkscape:window-width="1920"
     inkscape:window-height="1001"
     id="namedview3743"
     showgrid="false"
     inkscape:zoom="5.05"
     inkscape:cx="-43.740954"
     inkscape:cy="13.107581"
     inkscape:window-x="-9"
     inkscape:window-y="-9"
     inkscape:window-maximized="1"
     inkscape:current-layer="svg3741"
     fit-margin-top="0"
     fit-margin-left="0"
     fit-margin-right="0"
     fit-margin-bottom="0" />
  <title
     id="title3731">checked, verified, tick, document, approved</title>
  <g
     data-name="Layer 2"
     id="g3735"
     style="fill:#6bae45;fill-opacity:1"
     transform="translate(-2,-2)">
    <path
       d="M 16,2 A 14,14 0 1 0 30,16 14,14 0 0 0 16,2 Z m 8.71,9.71 -10,10 A 1,1 0 0 1 14,22 1,1 0 0 1 13.38,21.78 l -5,-4 a 1,1 0 1 1 1.24,-1.56 l 4.31,3.44 9.36,-9.37 a 1.0040916,1.0040916 0 0 1 1.42,1.42 z"
       id="path3733"
       style="fill:#6bae45;fill-opacity:1"
       inkscape:connector-curvature="0" />
  </g>
</svg>
